<svg width="45" height="39" viewBox="0 0 45 39" fill="none" xmlns="http://www.w3.org/2000/svg">
<path d="M15.0312 22.125C15.625 22.125 16.2188 22.7188 16.2188 23.3125V37.5625C16.2188 38.2305 15.625 38.75 15.0312 38.75H11.4688C10.8008 38.75 10.2812 38.2305 10.2812 37.5625V23.3125C10.2812 22.7188 10.8008 22.125 11.4688 22.125H15.0312ZM5.53125 29.25C6.125 29.25 6.71875 29.8438 6.71875 30.4375V37.5625C6.71875 38.2305 6.125 38.75 5.53125 38.75H1.96875C1.30078 38.75 0.78125 38.2305 0.78125 37.5625V30.4375C0.78125 29.8438 1.30078 29.25 1.96875 29.25H5.53125ZM24.5312 15C25.125 15 25.7188 15.5938 25.7188 16.1875V37.5625C25.7188 38.2305 25.125 38.75 24.5312 38.75H20.9688C20.3008 38.75 19.7812 38.2305 19.7812 37.5625V16.1875C19.7812 15.5938 20.3008 15 20.9688 15H24.5312ZM34.0312 7.875C34.625 7.875 35.2188 8.46875 35.2188 9.0625V37.5625C35.2188 38.2305 34.625 38.75 34.0312 38.75H30.4688C29.8008 38.75 29.2812 38.2305 29.2812 37.5625V9.0625C29.2812 8.46875 29.8008 7.875 30.4688 7.875H34.0312ZM43.5312 0.75C44.125 0.75 44.7188 1.34375 44.7188 1.9375V37.5625C44.7188 38.2305 44.125 38.75 43.5312 38.75H39.9688C39.3008 38.75 38.7812 38.2305 38.7812 37.5625V1.9375C38.7812 1.34375 39.3008 0.75 39.9688 0.75H43.5312Z" fill="#FC5C24"/>
</svg>
