<svg width="80" height="80" viewBox="0 0 80 80" fill="none" xmlns="http://www.w3.org/2000/svg">
<path d="M6.04691 63.0469C5.09379 63.0469 4.15629 62.8125 3.29691 62.3906C0.984411 61.25 -0.343713 58.7656 0.0781616 56.3438C0.343787 54.8281 1.01566 53.4219 1.92191 52.5156C9.48441 44.8438 17.0625 37.2969 22.8125 31.5781C24.0782 30.3125 25.6094 29.6562 27.2188 29.6562C28.8907 29.6562 30.4844 30.3594 31.8282 31.7031L43.9532 43.8281L58.6719 29.1094C56.6094 29.0938 54.1875 29.0781 52.7032 29.0781C49.2188 29.0469 46.6875 26.5156 46.6719 23.0625C46.6563 21.375 47.2657 19.8281 48.375 18.7031C49.4844 17.5937 51 16.9844 52.6719 16.9844C56.2813 16.9531 59.875 16.9531 63.3282 16.9531C66.9375 16.9531 70.5469 16.9531 74.0313 16.9687C77.3907 16.9844 79.9375 19.4844 79.9532 22.7969C80 30.1875 80 37.4844 79.9532 44.4688C79.9375 47.7813 77.3282 50.2812 73.9219 50.2812H73.8594C70.4532 50.25 67.9532 47.7656 67.9063 44.3594C67.875 42.2188 67.875 40.0312 67.8907 37.9375V37.6094C62.7969 42.7188 57.7188 47.8437 52.625 52.9531L49.375 56.2188C47.6407 57.9687 45.9375 58.8125 44.2188 58.8125C42.5 58.8125 40.8438 57.9844 39.1407 56.2656L27.2188 44.3437L27.0313 44.5312C25.9219 45.625 24.875 46.6719 23.8438 47.7031C22.2813 49.2812 20.7032 50.8594 19.1407 52.4531L19.0469 52.5469C16.4219 55.1875 13.4532 58.1875 10.5782 61.0625C9.28129 62.3594 7.71879 63.0469 6.04691 63.0469Z" fill="url(#paint0_linear_626_540)"/>
<path d="M6.04711 61.7969C5.28149 61.7969 4.53149 61.6094 3.84399 61.2656C2.03149 60.375 0.98461 58.4375 1.31274 56.5625C1.53149 55.2969 2.09399 54.125 2.81274 53.3906C10.3752 45.7188 17.9377 38.1719 23.7034 32.4531C24.7346 31.4375 25.9534 30.8906 27.2346 30.8906C28.5784 30.8906 29.8596 31.4688 30.969 32.5781L43.9846 45.5937L61.7034 27.875L59.9065 27.8594C57.6409 27.8438 54.5159 27.8281 52.7346 27.8125C49.9221 27.7812 47.9534 25.8281 47.9377 23.0469C47.9377 21.6875 48.4065 20.4531 49.2815 19.5781C50.1877 18.6875 51.4221 18.2031 52.6877 18.2187C56.2971 18.2031 59.8752 18.2031 63.344 18.2031C66.9534 18.2031 70.5627 18.2031 74.0471 18.2187C76.7346 18.2344 78.7034 20.1562 78.719 22.7969C78.7659 30.1719 78.7659 37.4688 78.719 44.4531C78.7034 47.1094 76.6877 49.0312 73.9377 49.0312H73.8752C71.1409 49 69.2034 47.0781 69.1565 44.3437C69.1252 42.2031 69.1252 40.0156 69.1409 37.9062C69.1409 36.9844 69.1409 36.0625 69.1409 35.1406V34.5938C69.0784 34.6562 69.0159 34.7188 68.9534 34.7812C62.969 40.7969 56.969 46.8125 50.9846 52.8281L48.5002 55.3281C47.0002 56.8281 45.6096 57.5625 44.219 57.5625C42.8284 57.5625 41.4846 56.8438 40.0159 55.375L27.219 42.5781L26.1565 43.6406C25.0471 44.75 24.0002 45.7969 22.969 46.8125C21.3596 48.4219 19.7659 50.0469 18.1565 51.6562C15.3909 54.4531 12.5315 57.3281 9.70336 60.1562C8.64086 61.2344 7.37524 61.7969 6.04711 61.7969Z" fill="url(#paint1_linear_626_540)"/>
<defs>
<linearGradient id="paint0_linear_626_540" x1="40.0004" y1="80.5094" x2="40.0004" y2="0.17344" gradientUnits="userSpaceOnUse">
<stop stop-color="#FDAE3E"/>
<stop offset="1" stop-color="#FF0749"/>
</linearGradient>
<linearGradient id="paint1_linear_626_540" x1="40.0006" y1="1.15" x2="40.0006" y2="77.3578" gradientUnits="userSpaceOnUse">
<stop stop-color="#FDAE3E"/>
<stop offset="1" stop-color="#FF0749"/>
</linearGradient>
</defs>
</svg>
