<svg width="59" height="48" viewBox="0 0 59 48" fill="none" xmlns="http://www.w3.org/2000/svg">
<path d="M57.2812 19.9688C58.0156 19.9688 58.75 20.7031 58.75 21.4375V24.375C58.75 25.2012 58.0156 25.8438 57.2812 25.8438H51.4062V31.7188C51.4062 32.5449 50.6719 33.1875 49.9375 33.1875H47C46.1738 33.1875 45.5312 32.5449 45.5312 31.7188V25.8438H39.6562C38.8301 25.8438 38.1875 25.2012 38.1875 24.375V21.4375C38.1875 20.7031 38.8301 19.9688 39.6562 19.9688H45.5312V14.0938C45.5312 13.3594 46.1738 12.625 47 12.625H49.9375C50.6719 12.625 51.4062 13.3594 51.4062 14.0938V19.9688H57.2812ZM20.5625 24.375C14.0449 24.375 8.8125 19.1426 8.8125 12.625C8.8125 6.19922 14.0449 0.875 20.5625 0.875C26.9883 0.875 32.3125 6.19922 32.3125 12.625C32.3125 19.1426 26.9883 24.375 20.5625 24.375ZM28.7324 27.3125C35.5254 27.3125 41.125 32.9121 41.125 39.7051V43.4688C41.125 45.9473 39.1055 47.875 36.7188 47.875H4.40625C1.92773 47.875 0 45.9473 0 43.4688V39.7051C0 32.9121 5.50781 27.3125 12.3008 27.3125H13.8613C15.8809 28.3223 18.1758 28.7812 20.5625 28.7812C22.9492 28.7812 25.1523 28.3223 27.1719 27.3125H28.7324Z" fill="white"/>
</svg>
